<svg id="Layer_1" data-name="Layer 1" xmlns="http://www.w3.org/2000/svg" xmlns:xlink="http://www.w3.org/1999/xlink" viewBox="0 0 1168 966.66"><defs><style>.cls-1{fill:url(#linear-gradient);}.cls-2{fill:#121d26;}.cls-3{fill:#2ab7b2;}.cls-4{fill:#f15d51;}.cls-5{fill:url(#linear-gradient-2);}.cls-6{fill:#fcfcfc;}.cls-7{fill:#f58724;}.cls-8{fill:#c8db55;}</style><linearGradient id="linear-gradient" x1="201.34" y1="483.33" x2="1168" y2="483.33" gradientUnits="userSpaceOnUse"><stop offset="1" stop-color="#ffcd58"/><stop offset="1" stop-color="#ffcd58" stop-opacity="0"/></linearGradient><linearGradient id="linear-gradient-2" x1="628.5" y1="582.52" x2="916.53" y2="582.52" gradientUnits="userSpaceOnUse"><stop offset="0" stop-color="#fff"/><stop offset="1" stop-color="#fff"/></linearGradient></defs><circle class="cls-1" cx="684.67" cy="483.33" r="483.33"/><path class="cls-2" d="M674.24,745.09a257,257,0,0,1-39.87,2,246,246,0,0,1-32.51-2.44,195.33,195.33,0,0,1-19.76-3.91c-11.17-2.85-31.42-8.17-51.78-23.28a131.86,131.86,0,0,1-28.83-29.57l28-4.74c41.55-7.06,83.06-14.36,124.65-21.15,57.51-9.38,100.34-54.92,104-114.55,1.9-30.67.21-61.57.14-92.37l.27-37.86c5.89-.8,11.68,0,17.45,1.08,31.38,4.82,56,20.63,74.43,46.21,20.14,28,23.59,59.64,18.4,92.55q-10.08,64-45.25,107.36s-37.46,46.21-100.37,68.7A261.53,261.53,0,0,1,674.24,745.09Z" transform="translate(0.18)"/><path class="cls-3" d="M758.59,417.26l-.27,37.86c-.37,1.28-.84,2.53-1.1,3.83-7.38,36.59-28.05,62.58-63.17,75.36-39.53,14.38-79.6,27.28-119.43,40.86Q525.18,592,475.75,609c-12.31,2.17-23.72,7.23-35.48,11.12-38.41,12.7-76.72,25.72-115.06,38.62q38.43-35.37,76.87-70.73Q536.95,464.49,671.89,341.06c1.16-1.06,2.45-2,3.68-2.95.39,2.46.91,4.9,1.15,7.37,2,20.32,11.1,37,26,50.73C718.47,410.78,737.71,416.22,758.59,417.26Z" transform="translate(0.18)"/><path class="cls-4" d="M758.59,417.26c-20.88-1-40.12-6.48-55.9-21.05-14.87-13.72-24-30.41-26-50.73-.24-2.47-.76-4.91-1.15-7.37,14.64-24.93,26.88-51.47,44.47-74.43,51.1-66.71,152-62.46,197.78,7.89,6.8,10.46,15.31,17.54,27.5,20.11-11.44-.84-21.17,3.13-29.87,10.35-2.93,2.43-6.32,4.3-9.5,6.42l-34.69-.28c-1.62-18.75-18.68-26-31.12-20.92-9.41,3.82-13.35,11.47-14.78,20.92-10.19,0-20.38-.08-30.57.09a32.85,32.85,0,0,0-25.42,12.31,35.67,35.67,0,0,0,.39,46.66,35,35,0,0,0,46.76,5.53c22.14-15.28,44-31,65.94-46.57l33.82.49q0,45.09-.07,90.17-66.32.06-132.61.18c-2.51,0-5.41-1.21-7.56,1.31C770.27,417.24,764.48,416.46,758.59,417.26Z" transform="translate(0.18)"/><path class="cls-5" d="M776,418.34c2.15-2.52,5.05-1.3,7.56-1.31q66.3-.18,132.61-.18c0,37.56.84,75.15-.22,112.68-.72,25.59-7.35,50.33-17.44,74a230.75,230.75,0,0,1-54.61,78.3,227.66,227.66,0,0,1-31.42,24.77c-26.4,17.26-50,24.72-63.16,28.73C701.14,750.08,656,749.35,628.5,747a244.4,244.4,0,0,0,94.75-13.83c18.85-6.75,63.79-23.39,100.37-68.7Q858.71,621,868.87,557.1c5.19-32.91,1.74-64.56-18.4-92.55C832.06,439,807.42,423.16,776,418.34Z" transform="translate(0.18)"/><path class="cls-2" d="M325.21,658.74c38.34-12.9,76.65-25.92,115.06-38.62,11.76-3.89,23.17-9,35.48-11.12-.07,2.84-.14,5.69-.2,8.53-6.28,27.71-23.83,42.92-51.33,49.31-51.92,12-103.55,25.34-155.3,38.07C199.61,722,130.26,738.82,61,756.08c-19,4.74-38.28,8.58-57,14.66l.14,0L0,770.89c-1-3.3,2.27-2.21,3.22-2.53q74.55-25.5,149.21-50.64,84.23-28.54,168.42-57.17C322.34,660.05,323.76,659.35,325.21,658.74Z" transform="translate(0.18)"/><path class="cls-4" d="M4,770.74c18.68-6.08,37.94-9.92,57-14.66,69.26-17.26,138.61-34.12,207.92-51.17,51.75-12.73,103.38-26,155.3-38.07,27.5-6.39,45-21.6,51.33-49.31,1.79,25.68,10.64,48.86,24.85,70.14-15.75,2.76-31.5,5.56-47.26,8.25q-60.64,10.38-121.3,20.66-66.21,11-132.44,22.06-91,15.25-182,30.54C13,769.91,8.65,771.48,4,770.74Z" transform="translate(0.18)"/><path class="cls-6" d="M331.84,716.58q60.65-10.32,121.3-20.66c15.76-2.69,31.51-5.49,47.26-8.25a2.07,2.07,0,0,0,1.09.26,131.86,131.86,0,0,0,28.83,29.57c20.09,14.91,39.63,20.14,51.78,23.28a174.74,174.74,0,0,0,31.42,5.15c-9-.49-27-1.41-46.21-2.08-19.65-.68-24.69-.41-27.69-.41q-4.79,0-9.57.19c-17.18.68-32.38-4.42-46.58-13.6-13-8.39-27-12.79-42.73-12.57-33.66.47-67.34.16-101,.11C337.1,717.56,334.29,718.36,331.84,716.58Z" transform="translate(0.18)"/><path class="cls-2" d="M916.28,326.68l-33.82-.49L906,308.45c3.18-2.12,6.57-4,9.5-6.42,8.7-7.22,18.43-11.19,29.87-10.35h53C973.39,309.43,949.86,330,916.28,326.68Z" transform="translate(0.18)"/><path class="cls-7" d="M0,770.89l4.18-.18C2.85,772.29,1.46,772.39,0,770.89Z" transform="translate(0.18)"/><path class="cls-8" d="M501.49,687.93a2.07,2.07,0,0,1-1.09-.26c-14.73-22.06-23.7-46.15-25-73l5-7.29q47.13-16.12,94.26-32.25c39.83-13.58,79.9-26.48,119.43-40.86,35.12-12.78,55.79-38.77,63.17-75.36.26-1.3.73-2.55,1.1-3.83.07,30.8,1.76,61.7-.14,92.37-3.69,59.63-46.52,105.17-104,114.55-41.59,6.79-83.1,14.09-124.65,21.15Z" transform="translate(0.18)"/><path class="cls-6" d="M906,308.45l-23.49,17.74c-22,15.55-43.8,31.29-65.94,46.57a35,35,0,0,1-46.76-5.53,35.67,35.67,0,0,1-.39-46.66,32.85,32.85,0,0,1,25.42-12.31c10.19-.17,20.38-.07,30.57-.09,1.78,11,6.46,19.7,18.36,22,14.47,2.81,24.07-5,27.54-22Z" transform="translate(0.18)"/><path class="cls-2" d="M871.26,308.17c-3.47,17-13.07,24.83-27.54,22-11.9-2.32-16.58-11.06-18.36-22,1.43-9.45,5.37-17.1,14.78-20.92C852.58,282.2,869.64,289.42,871.26,308.17Z" transform="translate(0.18)"/></svg>